# xmcd CD database file
#
# Track frame offsets:
#	150
#	15947
#	33621
#	51670
#	73196
#	94053
#	115593
#	136981
#	155213
#	174115
#	191727
#	213022
#	234500
#	254965
#	276841
#	296742
#	316913
#
# Disc length: 4423 seconds
#
# Revision: 0
# Processed by: cddbd v1.4PL0 Copyright (c) Steve Scherf et al.
# Submitted via: CDex 1.50beta8
#
DISCID=fe114511
DTITLE=Various Artist - Top Hits USA RJ17
DYEAR=2002
DGENRE=Jazz
TTITLE0=Steve Cole - Off Broadway (Edit)
TTITLE1=Greg Adams - Roadhouse
TTITLE2=Ken Navarro - Healing Hands
TTITLE3=Diana Krall - Just The Way You Are
TTITLE4=BWB - Groovin'
TTITLE5=Jeff Golub - Cold Duck Time
TTITLE6=Michael Manson - Outer Drive
TTITLE7=Natalie Cole - Tell Me About It
TTITLE8=Bona Fide - Willie Don
TTITLE9=Steve Oliver - High Noon
TTITLE10=Boney James - Grand Central
TTITLE11=Maysa - Friendly Pressure
TTITLE12=Peter White - Who's That Lady
TTITLE13=Marion Meadows - Tales Of A Gypsy
TTITLE14=Pieces Of A Dream - Turning It Up
TTITLE15=Russ Freeman - Brighter Day
TTITLE16=Norah Jones - Come Away With Me
EXTD=YEAR: 2002
EXTT0=
EXTT1=
EXTT2=
EXTT3=
EXTT4=
EXTT5=
EXTT6=
EXTT7=
EXTT8=
EXTT9=
EXTT10=
EXTT11=
EXTT12=
EXTT13=
EXTT14=
EXTT15=
EXTT16=
PLAYORDER=
